<?xml version="1.0" standalone="no"?>
<!DOCTYPE svg PUBLIC "-//W3C//DTD SVG 20010904//EN"
 "http://www.w3.org/TR/2001/REC-SVG-20010904/DTD/svg10.dtd">
<svg version="1.0" xmlns="http://www.w3.org/2000/svg"
 width="256.000000pt" height="256.000000pt" viewBox="0 0 256.000000 256.000000"
 preserveAspectRatio="xMidYMid meet">
<metadata>
Created by potrace 1.16, written by Peter Selinger 2001-2019
</metadata>
<g transform="translate(0.000000,256.000000) scale(0.100000,-0.100000)"
fill="#000000" stroke="none">
<path d="M1352 2440 c-40 -11 -79 -17 -86 -14 -8 3 -17 1 -21 -5 -4 -7 1 -9
12 -5 17 5 17 5 0 -6 -9 -6 -22 -8 -29 -4 -6 4 -8 3 -5 -4 10 -15 -134 -98
-195 -112 -66 -16 -157 -9 -174 14 -31 43 21 63 138 53 72 -6 74 -5 80 38 2
15 -2 19 -16 17 -10 -2 -16 0 -13 5 13 21 -146 13 -218 -12 -13 -4 -12 -1 5 9
28 17 19 22 -11 5 -11 -5 -17 -14 -15 -18 7 -10 -33 -48 -43 -41 -9 8 -14 -61
-4 -71 5 -5 7 11 5 34 -3 23 -2 40 1 37 3 -3 7 -26 9 -52 2 -25 10 -54 18 -63
16 -19 83 -55 102 -55 7 0 -9 11 -37 24 -27 12 -57 31 -65 42 -14 18 -14 18 6
2 34 -30 110 -58 171 -64 90 -9 165 10 313 80 74 36 159 69 188 75 128 26 257
4 257 -44 0 -30 -59 -55 -127 -55 -69 0 -108 14 -115 40 -4 16 -11 19 -32 14
-14 -4 -34 -14 -45 -23 -10 -9 -21 -14 -25 -11 -15 12 -11 -44 6 -62 21 -23
66 -48 85 -48 7 1 -3 8 -22 16 -49 21 -70 43 -69 73 1 25 2 24 8 -4 4 -22 17
-35 49 -52 96 -48 245 -38 376 25 5 3 5 -2 1 -9 -5 -8 1 -5 13 5 23 20 29 32
11 20 -7 -4 -10 -1 -7 7 3 8 11 14 19 14 7 0 15 9 16 20 l3 20 -9 -20 c-8 -16
-10 -12 -10 22 -1 29 -8 50 -26 71 -13 16 -22 31 -19 34 2 3 -3 11 -13 19 -14
12 -15 12 -9 0 6 -9 5 -12 -5 -9 -8 3 -13 11 -11 17 1 7 -2 10 -8 6 -5 -3 -33
1 -62 10 -74 22 -252 19 -346 -5z"/>
<path d="M418 2299 c-21 -11 -38 -22 -38 -24 0 -3 18 4 40 15 61 31 62 23 1
-10 -61 -34 -65 -35 -56 -17 4 6 -7 -3 -24 -21 -17 -18 -31 -38 -31 -45 0 -6
9 3 20 21 11 17 22 32 25 32 4 0 -1 -10 -9 -22 -9 -12 -16 -36 -16 -53 0 -24
-2 -27 -11 -15 -9 13 -10 13 -6 0 2 -8 10 -15 17 -15 7 0 15 -6 18 -14 3 -9 0
-11 -9 -6 -8 5 -5 -1 5 -13 20 -23 32 -29 20 -11 -4 7 -1 10 7 7 8 -3 14 -10
14 -15 0 -6 4 -15 9 -20 5 -5 6 -2 1 6 -5 9 -3 12 6 9 8 -3 14 -11 14 -18 0
-7 7 -15 15 -17 13 -4 13 -3 0 6 -23 16 -6 13 49 -9 208 -81 593 -128 966
-116 305 9 543 43 704 101 39 14 76 23 83 19 7 -5 8 -3 3 6 -6 10 -4 12 8 7 9
-3 26 3 39 14 l23 20 -30 -18 c-24 -15 -22 -9 15 27 25 25 46 44 48 43 2 -1
-4 -14 -13 -30 -16 -28 -16 -28 1 -4 10 13 19 39 20 58 0 21 -2 29 -7 21 -5
-7 -9 -10 -9 -6 0 3 -3 14 -7 24 -5 13 -3 15 8 9 8 -5 3 4 -11 19 -14 15 -34
32 -45 38 -12 6 -8 -1 11 -18 16 -16 23 -24 15 -18 -9 7 -32 22 -51 34 -19 12
-27 19 -17 16 11 -3 16 -2 12 4 -9 15 -23 12 -34 -8 -6 -12 -6 -23 1 -33 8
-11 9 -10 4 4 -3 11 -2 16 4 12 6 -3 10 -22 10 -40 0 -28 -7 -39 -37 -60 -76
-51 -288 -102 -528 -125 -142 -14 -509 -14 -650 0 -230 22 -428 69 -510 120
-48 30 -59 69 -29 106 15 18 15 18 5 -3 -6 -12 -11 -31 -11 -41 0 -20 52 -72
72 -72 6 0 -4 10 -23 23 -35 24 -40 47 -26 105 3 12 2 22 -3 22 -4 0 -14 2
-22 5 -7 2 -30 -5 -50 -16z"/>
<path d="M335 2002 c-3 -3 -5 -15 -4 -26 1 -18 2 -18 8 4 5 19 9 11 19 -42 7
-37 24 -106 37 -154 l26 -86 -60 -59 c-33 -32 -67 -72 -76 -89 -9 -17 -20 -28
-25 -25 -6 4 -7 -1 -3 -11 3 -10 2 -15 -3 -12 -5 4 -10 -4 -10 -15 -1 -12 -8
-52 -15 -88 -11 -57 -10 -75 4 -134 9 -37 14 -72 10 -78 -4 -6 -1 -7 7 -2 10
6 12 4 7 -8 -7 -19 35 -75 89 -118 57 -45 52 -35 -11 22 -30 29 -61 61 -67 73
-6 11 11 -3 37 -32 93 -103 208 -134 344 -93 39 12 71 25 71 30 0 5 -22 11
-49 13 -105 10 -231 107 -265 203 -26 76 -30 170 -9 230 10 28 24 51 31 51 6
1 17 2 22 3 6 0 10 6 10 12 0 8 -5 8 -15 -1 -18 -15 -20 1 -3 18 11 11 29 -21
106 -182 3 -5 -2 -5 -9 -1 -8 5 -11 4 -6 -1 5 -5 12 -9 17 -9 4 0 55 -66 112
-146 83 -117 110 -164 132 -230 20 -58 40 -96 65 -122 98 -103 348 -162 588
-138 183 18 286 54 379 132 47 39 47 39 -6 -12 -30 -29 -41 -43 -25 -32 47 33
79 71 82 101 10 81 48 157 152 304 59 84 113 163 120 176 7 12 16 20 21 17 6
-4 7 1 3 11 -4 12 -3 15 5 10 8 -5 10 -1 5 10 -4 12 -3 15 5 10 7 -4 10 -2 7
6 -3 8 8 43 24 78 37 83 84 232 107 339 13 58 20 78 25 65 5 -13 8 -14 8 -4 1
34 -15 41 -39 15 -13 -14 -28 -25 -34 -25 -6 0 -2 7 8 15 11 8 15 15 9 15 -14
0 -34 -25 -26 -33 11 -11 -98 -54 -207 -81 -338 -83 -815 -98 -1230 -40 -192
27 -384 83 -432 125 -13 11 -16 17 -8 13 11 -5 11 -2 -2 11 -17 18 -53 27 -63
17z"/>
<path d="M206 590 c16 -6 15 -8 -8 -13 -44 -11 -83 -53 -114 -119 -24 -54 -29
-77 -30 -158 -2 -90 0 -97 24 -123 14 -15 29 -27 34 -27 5 0 -4 12 -20 28 -15
15 -18 18 -5 8 35 -29 111 -33 161 -7 22 11 44 26 47 31 4 7 16 1 30 -15 28
-29 79 -34 124 -10 28 14 81 102 81 134 0 13 2 14 9 2 8 -12 10 -12 14 0 6 20
1 -16 -13 -82 -10 -51 -14 -57 -49 -73 -30 -12 -43 -27 -55 -58 -16 -40 -16
-41 5 -64 12 -13 27 -24 32 -24 5 0 -2 9 -17 21 -14 11 -26 24 -26 29 0 5 11
-2 25 -15 27 -28 57 -31 95 -12 21 11 29 11 48 -1 24 -16 74 -11 102 11 9 6 5
2 -8 -10 -13 -13 -19 -23 -14 -23 4 0 21 14 38 32 16 17 23 27 15 23 -11 -6
-13 -4 -6 11 8 19 43 169 66 279 9 47 13 56 20 40 6 -17 8 -17 8 -2 1 10 9 17
21 17 11 0 20 7 20 15 0 9 -9 15 -25 15 -28 0 -30 6 -15 44 10 28 40 36 40 11
0 -8 9 -15 20 -15 23 0 27 28 9 62 -8 14 -8 18 0 14 6 -4 15 -21 20 -39 7 -24
9 -27 10 -10 1 12 -11 35 -25 50 -14 15 -23 23 -20 16 4 -8 -6 -10 -34 -6 -27
4 -47 0 -64 -10 -24 -16 -44 -8 -45 18 0 6 -8 11 -18 12 -15 2 -15 1 2 -6 16
-8 10 -10 -25 -10 -35 0 -41 2 -25 10 l20 9 -20 -3 c-11 -2 -19 -8 -18 -14 1
-6 -10 -21 -24 -34 l-27 -24 18 30 c16 26 16 28 1 14 -9 -9 -18 -29 -19 -45
-2 -16 -9 -57 -16 -91 -10 -50 -16 -63 -31 -63 -12 0 -19 7 -19 20 0 12 -12
32 -26 46 -26 27 -61 29 -108 9 -15 -7 -17 -5 -11 6 8 12 6 12 -8 0 -20 -16
-23 -25 -4 -15 6 4 1 -5 -12 -19 -27 -30 -41 -37 -20 -9 13 15 12 16 -3 4 -10
-8 -14 -20 -11 -29 5 -12 3 -14 -7 -8 -8 5 -11 4 -7 -3 4 -5 1 -34 -7 -64 -15
-60 -37 -78 -98 -78 -43 0 -58 19 -58 74 0 123 73 270 120 241 14 -9 13 -48
-2 -63 -17 -17 9 -34 40 -27 17 4 22 2 17 -7 -4 -7 3 -2 14 11 12 13 21 35 20
50 -1 28 -3 23 -14 -23 -9 -44 -14 -26 -6 21 5 23 5 40 1 38 -8 -5 -36 23 -42
40 -2 5 -27 10 -57 10 -30 1 -46 -2 -35 -5z"/>
<path d="M1447 591 c47 -6 93 -32 93 -52 0 -4 -11 3 -25 16 -50 51 -175 21
-199 -46 -13 -39 -1 -71 49 -130 49 -57 64 -106 46 -145 -9 -21 -17 -25 -49
-22 -35 3 -37 5 -37 38 0 31 3 35 28 38 51 6 25 52 -30 52 -37 0 -69 -26 -79
-65 -6 -25 -4 -39 11 -80 l8 -20 -17 20 c-17 20 -17 20 -6 -2 5 -12 15 -25 22
-29 7 -5 8 -3 3 6 -5 8 -3 11 6 8 8 -3 14 -11 14 -18 0 -7 7 -15 15 -17 13 -4
13 -3 1 5 -10 7 4 9 45 6 45 -4 67 -1 94 13 65 34 96 110 71 175 -5 13 -32 47
-61 76 -44 44 -51 56 -48 84 3 29 7 33 34 36 36 4 50 -18 34 -49 -14 -24 -7
-35 25 -41 23 -5 55 16 55 36 0 5 -9 -2 -20 -15 l-20 -24 14 30 c29 62 28 71
-4 99 -25 21 -41 26 -78 25 l-47 -2 52 -6z"/>
<path d="M2470 541 c22 -7 20 -8 -21 -15 -44 -6 -47 -9 -54 -44 -6 -31 -9 -34
-15 -17 -8 18 -9 17 -9 -7 -1 -29 -17 -32 -47 -8 -10 8 -15 11 -12 5 4 -6 -13
-10 -43 -10 -33 0 -49 4 -49 13 0 13 -58 17 -76 4 -5 -4 -18 -45 -28 -92 -19
-96 -34 -140 -47 -140 -5 0 -8 3 -8 8 1 4 0 16 -1 27 -2 13 -5 7 -10 -15 -6
-31 -8 -32 -9 -8 0 15 6 57 14 95 9 37 18 78 21 91 4 22 2 23 -43 20 -44 -3
-48 -5 -54 -33 -4 -16 -7 -23 -8 -15 0 9 -7 22 -13 29 -7 6 -13 17 -13 24 0 6
-9 13 -20 14 l-20 3 20 -10 c18 -9 17 -10 -7 -7 -15 2 -25 1 -23 -3 3 -5 -2
-10 -10 -14 -8 -3 -15 -1 -15 4 0 6 -20 10 -44 10 l-44 0 -17 -90 c-15 -77
-22 -94 -47 -115 -40 -33 -85 -34 -94 -1 -10 42 41 184 60 165 3 -3 6 -18 8
-35 1 -21 7 -30 19 -30 10 0 15 4 13 8 -3 4 -1 8 4 8 16 0 22 42 9 64 -6 12
-11 24 -12 28 -1 16 -15 17 -62 3 -89 -26 -140 -108 -130 -209 3 -37 2 -47 -6
-35 -9 15 -13 13 -36 -14 -14 -16 -39 -36 -56 -43 -18 -8 -23 -13 -13 -14 10
0 36 16 57 35 24 22 42 32 46 25 3 -6 10 -8 15 -5 9 6 25 -13 25 -30 0 -5 9
-11 20 -12 l20 -3 -20 9 c-15 8 -9 10 30 10 31 1 62 9 83 21 l32 20 -6 -25
c-6 -24 -4 -25 40 -25 25 0 46 2 46 4 0 24 43 203 51 213 13 15 29 17 29 3 0
-6 -5 -9 -12 -8 -6 2 -13 -6 -15 -17 -2 -16 -1 -16 5 -4 14 31 68 6 74 -34 3
-17 5 -15 9 9 4 26 2 31 -10 27 -10 -4 -8 0 4 10 25 20 29 9 16 -40 -6 -21
-11 -59 -11 -85 0 -50 23 -78 65 -78 11 0 31 7 43 16 12 8 22 10 22 5 0 -6 -3
-11 -7 -11 -5 0 -8 -12 -8 -27 -1 -16 -5 -48 -9 -72 l-8 -44 28 7 c16 4 38 9
49 12 16 4 17 3 5 -5 -8 -6 -10 -11 -4 -11 6 0 18 8 25 17 10 11 10 14 2 9 -7
-4 -13 -6 -13 -4 1 2 7 28 14 58 12 54 12 55 52 55 21 1 48 5 58 10 15 7 18 5
11 -6 -5 -8 4 -3 18 10 33 30 36 42 5 15 -23 -19 -23 -19 0 7 26 30 52 106 52
153 0 17 -7 44 -15 60 -11 22 -12 26 -2 17 8 -6 17 -7 22 -3 4 4 4 -3 1 -15
-5 -14 -3 -23 3 -23 6 0 11 7 11 17 0 9 2 14 5 11 3 -3 -4 -47 -15 -98 -11
-51 -18 -102 -14 -114 6 -21 6 -21 -11 -1 -16 20 -16 20 -5 -3 6 -12 15 -20
19 -17 11 6 33 -20 25 -28 -4 -4 8 -2 27 3 42 12 42 12 33 -2 -4 -7 5 -1 20
13 28 26 28 59 0 59 -18 0 -18 23 3 116 12 55 19 72 24 58 7 -17 8 -17 8 -1 1
9 6 17 11 17 6 0 10 7 10 15 0 8 -7 15 -15 15 -13 0 -15 7 -9 38 3 20 7 41 8
47 0 5 -10 11 -24 12 l-25 2 25 -8z"/>
<path d="M1177 461 c60 -10 63 -19 5 -13 -44 4 -53 1 -84 -27 -20 -17 -41 -44
-48 -61 -7 -16 -15 -30 -19 -30 -3 0 -6 -16 -7 -37 -1 -45 -34 -75 -78 -71
-25 2 -32 8 -34 31 -3 21 1 27 15 27 33 0 84 40 100 78 14 34 14 39 -1 66 -14
24 -14 27 -2 17 8 -7 18 -21 21 -32 4 -11 10 -17 15 -14 5 3 -2 18 -15 34 -23
25 -29 27 -75 21 -28 -4 -65 -17 -83 -30 l-32 -23 25 27 c13 15 18 24 10 21
-8 -3 -24 -18 -34 -32 -11 -14 -14 -23 -6 -18 8 5 11 3 8 -6 -3 -8 -9 -13 -14
-12 -5 1 -10 -8 -11 -20 -1 -12 -5 -48 -9 -79 -5 -45 -3 -64 10 -85 l17 -28
-20 24 c-15 16 -21 37 -21 70 0 25 -5 53 -10 61 -6 9 -7 -6 -4 -45 8 -81 27
-106 83 -111 53 -5 102 9 126 36 17 19 18 19 46 -12 26 -27 34 -30 72 -25 28
4 49 14 64 32 25 29 30 55 11 55 -9 0 -8 4 2 11 13 9 13 10 0 6 -8 -2 -15 -10
-15 -18 0 -9 -13 -15 -32 -17 -30 -3 -33 -1 -33 22 0 17 5 26 16 26 29 0 81
39 94 70 7 17 10 44 6 61 -4 22 -2 28 7 24 6 -4 1 3 -12 14 -15 14 -36 21 -60
20 l-36 -2 42 -6z"/>
</g>
</svg>
